<svg width="16" height="16" viewBox="0 0 16 16" fill="none" xmlns="http://www.w3.org/2000/svg">
<path d="M12.7 3.27329C12.0888 2.65591 11.3608 2.1664 10.5584 1.83333C9.75607 1.50025 8.89541 1.33027 8.02667 1.33329C4.38667 1.33329 1.42 4.29996 1.42 7.93996C1.42 9.10662 1.72667 10.24 2.3 11.24L1.36667 14.6666L4.86667 13.7466C5.83334 14.2733 6.92 14.5533 8.02667 14.5533C11.6667 14.5533 14.6333 11.5866 14.6333 7.94662C14.6333 6.17996 13.9467 4.51996 12.7 3.27329ZM8.02667 13.4333C7.04 13.4333 6.07334 13.1666 5.22667 12.6666L5.02667 12.5466L2.94667 13.0933L3.5 11.0666L3.36667 10.86C2.8185 9.9846 2.52743 8.97279 2.52667 7.93996C2.52667 4.91329 4.99334 2.44663 8.02 2.44663C9.48667 2.44663 10.8667 3.01996 11.9 4.05996C12.4117 4.56927 12.8171 5.17507 13.0929 5.84224C13.3687 6.50942 13.5094 7.2247 13.5067 7.94662C13.52 10.9733 11.0533 13.4333 8.02667 13.4333ZM11.04 9.32662C10.8733 9.24662 10.06 8.84663 9.91334 8.78662C9.76 8.73329 9.65334 8.70662 9.54 8.86662C9.42667 9.03329 9.11334 9.40662 9.02 9.51329C8.92667 9.62663 8.82667 9.63996 8.66 9.55329C8.49334 9.47329 7.96 9.29329 7.33334 8.73329C6.84 8.29329 6.51334 7.75329 6.41334 7.58663C6.32 7.41996 6.4 7.33329 6.48667 7.24662C6.56 7.17329 6.65334 7.05329 6.73334 6.95996C6.81334 6.86662 6.84667 6.79329 6.9 6.68662C6.95334 6.57329 6.92667 6.47996 6.88667 6.39996C6.84667 6.31996 6.51334 5.50663 6.38 5.17329C6.24667 4.85329 6.10667 4.89329 6.00667 4.88663H5.68667C5.57334 4.88663 5.4 4.92663 5.24667 5.09329C5.1 5.25996 4.67334 5.65996 4.67334 6.47329C4.67334 7.28663 5.26667 8.07329 5.34667 8.17996C5.42667 8.29329 6.51334 9.95996 8.16667 10.6733C8.56 10.8466 8.86667 10.9466 9.10667 11.02C9.5 11.1466 9.86 11.1266 10.1467 11.0866C10.4667 11.04 11.1267 10.6866 11.26 10.3C11.4 9.91329 11.4 9.58663 11.3533 9.51329C11.3067 9.43996 11.2067 9.40662 11.04 9.32662Z" fill="#636363"/>
</svg>
